<svg xmlns="http://www.w3.org/2000/svg" viewBox="0 0 1200 630" width="1200" height="630">
  <rect width="1200" height="630" fill="#f4f4f0"/>

  <!-- Border -->
  <line x1="0" y1="0" x2="1200" y2="0" stroke="#0a0a0a" stroke-width="4"/>
  <line x1="0" y1="630" x2="1200" y2="630" stroke="#0a0a0a" stroke-width="4"/>
  <line x1="0" y1="0" x2="0" y2="630" stroke="#0a0a0a" stroke-width="4"/>
  <line x1="1200" y1="0" x2="1200" y2="630" stroke="#0a0a0a" stroke-width="4"/>

  <!-- Crosshairs -->
  <g stroke="#0a0a0a" stroke-width="1">
    <line x1="40" y1="40" x2="80" y2="40"/><line x1="60" y1="20" x2="60" y2="60"/>
    <line x1="1120" y1="40" x2="1160" y2="40"/><line x1="1140" y1="20" x2="1140" y2="60"/>
    <line x1="40" y1="590" x2="80" y2="590"/><line x1="60" y1="570" x2="60" y2="610"/>
    <line x1="1120" y1="590" x2="1160" y2="590"/><line x1="1140" y1="570" x2="1140" y2="610"/>
  </g>

  <!-- Warning stripe top -->
  <rect x="0" y="0" width="1200" height="12" fill="#e61919"/>

  <!-- Registration marks -->
  <text x="60" y="100" font-family="monospace" font-size="12" fill="#6a6a6a" letter-spacing="2">REV.2026.07 / UNIT D-01</text>
  <text x="1140" y="100" font-family="monospace" font-size="12" fill="#6a6a6a" letter-spacing="2" text-anchor="end">DAILY EDITION</text>

  <!-- Main title -->
  <text x="80" y="240" font-family="Arial Black, Impact, sans-serif" font-size="95" font-weight="900" fill="#0a0a0a" letter-spacing="-3">PRODUTO</text>
  <text x="80" y="340" font-family="Arial Black, Impact, sans-serif" font-size="95" font-weight="900" fill="#0a0a0a" letter-spacing="-3">COM <tspan fill="#e61919">IA</tspan></text>

  <!-- Divider -->
  <rect x="80" y="370" width="600" height="4" fill="#0a0a0a"/>

  <!-- Tagline -->
  <text x="80" y="420" font-family="Inter, sans-serif" font-size="28" fill="#0a0a0a" font-weight="600">
    Inteligência Artificial para Product Managers
  </text>
  <text x="80" y="460" font-family="monospace" font-size="14" fill="#6a6a6a" letter-spacing="2">
    CURADORIA DIÁRIA · RADAR DE NOTÍCIAS · INSIGHTS ACIONÁVEIS
  </text>

  <!-- Right side info block -->
  <rect x="800" y="150" width="340" height="380" fill="none" stroke="#0a0a0a" stroke-width="2"/>
  <rect x="800" y="150" width="340" height="40" fill="#0a0a0a"/>
  <text x="970" y="178" font-family="monospace" font-size="14" fill="#f4f4f0" text-anchor="middle" letter-spacing="3">SPECS</text>

  <text x="820" y="220" font-family="monospace" font-size="12" fill="#6a6a6a" letter-spacing="1">FREQUÊNCIA</text>
  <text x="820" y="245" font-family="Inter, sans-serif" font-size="20" fill="#0a0a0a" font-weight="700">Diária</text>

  <text x="820" y="285" font-family="monospace" font-size="12" fill="#6a6a6a" letter-spacing="1">PÚBLICO</text>
  <text x="820" y="310" font-family="Inter, sans-serif" font-size="20" fill="#0a0a0a" font-weight="700">PMs · POs · Tech</text>

  <text x="820" y="350" font-family="monospace" font-size="12" fill="#6a6a6a" letter-spacing="1">FOCO</text>
  <text x="820" y="375" font-family="Inter, sans-serif" font-size="20" fill="#0a0a0a" font-weight="700">IA · Produto · Fintech</text>

  <text x="820" y="415" font-family="monospace" font-size="12" fill="#6a6a6a" letter-spacing="1">EDITADO POR</text>
  <text x="820" y="440" font-family="Inter, sans-serif" font-size="20" fill="#0a0a0a" font-weight="700">Rodrigo Tozato</text>

  <rect x="800" y="470" width="340" height="40" fill="#e61919"/>
  <text x="970" y="496" font-family="monospace" font-size="14" fill="#f4f4f0" text-anchor="middle" letter-spacing="3">PRODUTOCOMIA.COM.BR</text>

  <!-- Warning stripe bottom -->
  <rect x="0" y="618" width="1200" height="12" fill="#e61919"/>
</svg>
